<svg xmlns="http://www.w3.org/2000/svg" viewBox="0 25.75 108 23.75" data-asc="0.966"><g fill="#ffe74d"><g fill="#ffe74d" transform="translate(0, 0)"><path d="M15.30 45.15Q11.15 48.95 9.60 48.95Q8.90 48.95 8.90 48.15Q8.90 47.15 9.78 45.10Q10.65 43.05 11.55 41.50L12.45 39.95Q12.65 39.60 12.65 39.50Q12.65 39.40 12.55 39.40Q12.35 39.40 11.80 39.95Q10.30 41.60 8.38 43.47Q6.45 45.35 5.25 46.40L4.10 47.40Q2.15 48.90 1.10 48.90Q0 48.90 0 47.20Q0 46.35 0.47 44.60Q0.95 42.85 1.20 42.25Q2.35 39.45 4.08 36.80Q5.80 34.15 8.15 31.72Q10.50 29.30 13.63 27.80Q16.75 26.30 20.10 26.30Q22.90 26.30 22.90 27.15Q22.90 27.65 21.65 27.65Q17.05 27.65 13.03 31.57Q9 35.50 6.50 40.60Q5.80 42 5.80 42.95Q5.80 43.50 6.15 43.50Q6.75 43.50 7.70 42.65Q8.30 42.10 9.33 41.20Q10.35 40.30 12.65 37.75Q14.95 35.20 16.30 33Q16.50 32.60 16.93 32.05Q17.35 31.50 18.55 30.57Q19.75 29.65 20.95 29.65Q21.60 29.65 21.60 30.00Q21.60 30.10 21.45 30.35Q21.25 30.75 20.33 32.35Q19.40 33.95 18.60 35.38Q17.80 36.80 16.90 38.47Q16 40.15 15.48 41.35Q14.95 42.55 14.95 42.95Q14.95 43.25 15.20 43.25Q15.95 43.25 18.85 40.35Q21.05 38.05 24 34.70Q24.15 34.55 24.25 34.55Q24.35 34.55 24.35 34.75Q24.35 35.70 23.60 36.60Q18.70 42.05 15.30 45.15ZM30.55 39.95L32.10 37.30Q32.10 37.15 32 37.15Q31.90 37.15 31.75 37.30Q29.90 39.45 27.90 41.47Q25.90 43.50 24.85 44.45L23.75 45.40Q19.85 49.10 18.35 49.10Q17.65 49.10 17.65 48.20Q17.65 47.20 18.48 45.15Q19.30 43.10 20.15 41.50L20.95 39.95Q25.15 32.10 27.15 29.45Q28.15 28.15 29.60 27.27Q31.05 26.40 31.85 26.40Q32.35 26.40 32.35 26.75Q32.35 26.95 32.15 27.30Q32.05 27.50 30.10 30.62Q28.15 33.75 26.95 36Q23.65 42.05 23.65 42.95Q23.65 43.30 23.95 43.30Q24.40 43.30 25.50 42.40Q28.75 39.60 32.65 34.85Q34.80 32.55 37.15 28.85Q38.75 26.40 41.40 26.40Q41.85 26.40 41.85 26.80L41.45 27.75Q40.75 29.00 38.33 33.22Q35.90 37.45 35.55 38.05Q33.50 41.65 33.50 42.80Q33.50 43.25 33.80 43.25Q34.30 43.25 37 40.75Q39.10 38.65 42.55 34.70Q42.70 34.55 42.80 34.55Q42.90 34.55 42.90 34.75Q42.90 35.70 42.15 36.60Q38.45 40.70 35.60 43.45Q33.65 45.30 31.23 47.15Q28.80 49 27.70 49Q26.95 49 26.95 47.95Q26.95 47.35 27.85 45.35Q28.75 43.35 29.65 41.65L30.55 39.95ZM50.35 37.95Q49.95 37.95 49.95 37.65Q49.95 37.50 50.10 37.25Q53.05 32.65 53.05 30.95Q53.05 30.50 52.70 30.50Q51.20 30.50 45.65 37.30Q44 39.40 42.57 41.65Q41.15 43.90 40.60 45.10L40 46.25Q39.40 47.45 38.15 48.47Q36.90 49.50 35.55 49.50Q34.85 49.50 34.85 49.15Q34.85 48.85 35.27 47.90Q35.70 46.95 36.30 45.80Q36.90 44.65 37.50 43.55Q38.10 42.45 38.50 41.70L38.95 40.95L44.20 31.80Q47.25 26.05 50.60 26.05Q51.05 26.05 51.05 26.40Q51.05 26.85 48.88 30.12Q46.70 33.40 46.35 34.30Q46.25 34.60 46.25 34.65Q46.25 34.75 46.35 34.75Q46.45 34.75 46.70 34.50Q50.45 30.25 54.65 26.95Q54.90 26.70 55.75 26.22Q56.60 25.75 57.25 25.75Q58.20 25.75 58.20 27.40Q58.20 29.20 57 31.70Q55.80 34.20 53.75 36.10L53.55 36.30Q53.35 36.45 53.13 36.63Q52.90 36.80 52.55 37.05Q52.20 37.30 51.85 37.47Q51.50 37.65 51.10 37.80Q50.70 37.95 50.35 37.95ZM74.25 30.70Q74.70 30.80 74.70 31.00Q74.70 31.30 74.30 31.70Q73.75 32.25 72.67 33.15Q71.60 34.05 71.40 34.25L70.70 35.20Q69.65 38.15 67.47 41.32Q65.30 44.50 62.17 46.90Q59.05 49.30 56.20 49.30Q52.65 49.30 52.65 44.95Q52.65 41.10 55.15 36.63Q57.65 32.15 61.63 28.97Q65.60 25.80 69.45 25.80Q72.25 25.80 72.25 28.00Q72.25 29.20 71.05 31.25Q71 31.30 71 31.40Q71 31.50 71.10 31.50Q72.95 30.75 74.25 30.70M69.50 31.90Q69.90 30.15 69.90 29.20Q69.90 27.10 68.50 27.10Q66.55 27.10 63.65 30.70Q60.75 34.30 58.67 38.80Q56.60 43.30 56.60 45.90Q56.60 47.80 57.95 47.80Q60.05 47.80 62.98 43.60Q65.90 39.40 66.50 35.15Q66.45 35.05 66.45 34.85Q66.45 33.40 69.05 32.25Q69.45 32.10 69.50 31.90ZM82.35 37.95Q81.95 37.95 81.95 37.65Q81.95 37.50 82.10 37.25Q85.05 32.65 85.05 30.95Q85.05 30.50 84.70 30.50Q83.20 30.50 77.65 37.30Q76 39.40 74.58 41.65Q73.15 43.90 72.60 45.10L72 46.25Q71.40 47.45 70.15 48.47Q68.90 49.50 67.55 49.50Q66.85 49.50 66.85 49.15Q66.85 48.85 67.27 47.90Q67.70 46.95 68.30 45.80Q68.90 44.65 69.50 43.55Q70.10 42.45 70.50 41.70L70.95 40.95L76.20 31.80Q79.25 26.05 82.60 26.05Q83.05 26.05 83.05 26.40Q83.05 26.85 80.88 30.12Q78.70 33.40 78.35 34.30Q78.25 34.60 78.25 34.65Q78.25 34.75 78.35 34.75Q78.45 34.75 78.70 34.50Q82.45 30.25 86.65 26.95Q86.90 26.70 87.75 26.22Q88.60 25.75 89.25 25.75Q90.20 25.75 90.20 27.40Q90.20 29.20 89 31.70Q87.80 34.20 85.75 36.10L85.55 36.30Q85.35 36.45 85.13 36.63Q84.90 36.80 84.55 37.05Q84.20 37.30 83.85 37.47Q83.50 37.65 83.10 37.80Q82.70 37.95 82.35 37.95ZM98.95 45.15Q94.80 48.95 93.25 48.95Q92.55 48.95 92.55 48.15Q92.55 47.15 93.43 45.10Q94.30 43.05 95.20 41.50L96.10 39.95Q96.30 39.60 96.30 39.50Q96.30 39.40 96.20 39.40Q96 39.40 95.45 39.95Q93.95 41.60 92.03 43.47Q90.10 45.35 88.90 46.40L87.75 47.40Q85.80 48.90 84.75 48.90Q83.65 48.90 83.65 47.20Q83.65 46.35 84.13 44.60Q84.60 42.85 84.85 42.25Q86 39.45 87.73 36.80Q89.45 34.15 91.80 31.72Q94.15 29.30 97.28 27.80Q100.40 26.30 103.75 26.30Q106.55 26.30 106.55 27.15Q106.55 27.65 105.30 27.65Q100.70 27.65 96.68 31.57Q92.65 35.50 90.15 40.60Q89.45 42 89.45 42.95Q89.45 43.50 89.80 43.50Q90.40 43.50 91.35 42.65Q91.95 42.10 92.98 41.20Q94 40.30 96.30 37.75Q98.60 35.20 99.95 33Q100.15 32.60 100.58 32.05Q101 31.50 102.20 30.57Q103.40 29.65 104.60 29.65Q105.25 29.65 105.25 30.00Q105.25 30.10 105.10 30.35Q104.90 30.75 103.98 32.35Q103.05 33.95 102.25 35.38Q101.45 36.80 100.55 38.47Q99.65 40.15 99.13 41.35Q98.60 42.55 98.60 42.95Q98.60 43.25 98.85 43.25Q99.60 43.25 102.50 40.35Q104.70 38.05 107.65 34.70Q107.80 34.55 107.90 34.55Q108 34.55 108 34.75Q108 35.70 107.25 36.60Q102.35 42.05 98.95 45.15Z"/></g></g></svg>