<svg xmlns="http://www.w3.org/2000/svg" viewBox="0 32.45000076293945 81.4000015258789 14.849998474121094" data-asc="0.875"><g fill="#ffce1f"><g fill="#ffce1f" transform="translate(0, 0)"><path d="M1.25 44.20Q1.20 44.15 1.13 44.05Q1.05 43.95 1 43.95L0.95 43.95Q0.95 44 0.90 44Q0.80 44 0.70 43.55Q0.65 43.50 0.35 43.40Q0.20 42.85 0 42.80L0 41.45L0.40 41Q0.45 40.95 0.35 40.65Q0.40 40.55 0.45 40.45Q0.50 40.35 0.60 40.25Q0.60 40.10 0.55 39.90Q0.65 39.60 0.85 39.45Q0.85 39.15 1.05 38.90Q1.15 38.90 1.60 38.30L2.10 37.55Q2.25 37.45 2.70 37L2.70 36.80Q2.85 36.70 3 36.50Q3.35 36.45 3.50 36.20Q3.50 36.15 3.50 36.05Q3.50 35.95 3.55 35.85Q3.65 35.80 3.75 35.80Q3.85 35.80 4 35.75Q4.10 35.45 4.25 35.35Q4.90 35.30 5.20 34.65Q5.25 34.65 5.43 34.52Q5.60 34.40 5.65 34.40Q5.65 34.40 5.65 34.40L5.65 34.40Q5.60 34.45 5.80 34.50Q5.90 34.40 5.90 34.35Q6.15 34.20 6.35 34.20Q6.60 33.90 6.60 33.90Q6.65 33.90 6.68 33.95Q6.70 34 6.75 34Q6.85 34 7.13 33.88Q7.40 33.75 7.50 33.75L7.55 33.75Q7.50 33.80 7.60 33.80Q7.65 33.80 7.72 33.73Q7.80 33.65 7.85 33.65Q7.95 33.65 8.05 33.73Q8.15 33.80 8.20 33.80Q8.25 33.80 8.28 33.75Q8.30 33.70 8.40 33.70Q8.40 33.70 8.40 33.70L8.40 33.70Q8.30 33.70 8.55 33.80Q8.60 33.60 8.80 33.60Q8.90 33.60 8.93 33.67Q8.95 33.75 9.05 33.75Q9.10 33.75 9.10 33.70L9.20 33.70Q9.30 33.70 9.60 34.10Q9.70 34 9.70 34Q10.05 34.25 10.10 34.40L10.10 34.90L10 34.80Q9.70 34.90 9.40 34.90Q9.35 34.90 9.33 34.85Q9.30 34.80 9.20 34.80Q9.15 34.80 9.08 34.85Q9 34.90 8.95 34.90Q8.85 34.90 8.78 34.85Q8.70 34.80 8.65 34.80Q8.60 34.80 8.60 34.85Q8.60 34.90 8.50 34.90L8.45 34.90Q8.50 34.85 8.40 34.85Q8.35 34.85 7.83 35.10Q7.30 35.35 7.25 35.35Q7.20 35.35 7.10 35.20L6.10 35.65L5.75 35.55Q5.70 35.55 5.50 35.75Q5.30 35.95 5.20 35.95Q5.15 35.95 5.15 35.90L5.10 35.90Q4.90 35.90 4.73 36.13Q4.55 36.35 4.20 36.45Q4.15 36.50 4.20 36.65Q3.95 37.20 3.55 37.35Q3.50 37.40 3.50 37.55L3.15 37.55Q3.10 37.60 3.10 37.90Q3.10 37.90 3.03 37.90Q2.95 37.90 2.85 37.85Q2.70 38.10 2.80 38.35L2.30 38.35Q2.20 38.55 2.05 38.83Q1.90 39.10 1.75 39.50Q1.70 39.65 1.58 39.88Q1.45 40.10 1.35 40.40Q1.05 40.75 0.85 41.25L0.85 41.70Q0.85 41.75 0.80 41.90Q0.75 42.05 0.75 42.15Q1 42.40 1.25 42.40Q1.40 42.40 1.63 42.33Q1.85 42.25 2.05 41.85L2.20 41.95Q2.60 41.80 3.10 41.40Q3.15 41.35 3.35 41.30Q3.55 41.25 3.55 41.05Q3.60 41.05 3.65 41.10L3.85 40.75Q4.40 40.65 4.45 40.15Q4.55 40.15 4.60 40.20L4.95 39.90Q4.95 39.80 5 39.70Q5.05 39.70 5.10 39.67Q5.15 39.65 5.25 39.60L5.55 39.05Q5.70 38.90 6.05 38.85Q6.20 38.75 6.33 38.60Q6.45 38.45 6.55 38.35Q6.50 38.25 6.45 38.15Q6.40 38.05 6.30 37.95Q6.20 37.80 6.40 37.70Q6.30 37.75 6.30 37.60L6.30 37.30Q6.45 37.20 6.68 37.10Q6.90 37 7.15 36.80Q7.35 36.70 7.40 36.70Q7.40 36.70 7.40 36.70L7.40 36.70Q7.25 36.70 7.50 36.80Q7.60 36.55 7.75 36.25Q7.90 35.95 8.05 35.55L8.45 35.35Q8.45 35.35 8.55 35.65Q8.15 36.20 8.15 36.50Q8.15 36.65 8.65 36.80Q8.65 36.80 8.65 36.83Q8.65 36.85 8.60 36.90Q8.80 37.05 8.93 37.20Q9.05 37.35 9.10 37.45Q8.75 37.95 8.75 38.40L8.85 38.50Q8.80 38.55 8.80 38.90Q8.85 39.20 8.93 39.52Q9 39.85 9.10 40.25L9.45 40.75L9.45 40.90Q9.45 41.60 9.95 42.10L10.10 42L10.10 42.15Q10.40 42.25 10.75 42.60L11.30 42.60Q11.45 42.80 11.60 42.80Q12.40 42.80 12.40 42.40Q12.40 42.40 12.50 42.50Q13.05 42.25 14.15 40.85Q14.90 39.95 15 40L15.20 40.05L15.20 40.25L15.25 40.30Q15.25 40.30 14.85 40.85Q14.85 41.05 14.45 41.35Q14.55 41.40 14.45 41.50L14.15 41.70L14.25 41.85Q13.75 42 13.45 42.25Q13.15 42.50 13.20 42.60Q13.10 42.60 12.85 42.90Q12.65 42.90 12.65 43.10Q12.55 43 12.55 43L12.40 43.10Q12.40 43.10 12.33 43.15Q12.25 43.20 12.15 43.30Q12.10 43.30 12 43.30Q11.90 43.30 11.80 43.35L11.70 43.50L11.45 43.50Q11.40 43.45 11.35 43.45Q10.90 43.45 10.65 43.70L10.65 43.50L10 43.50L10 43.30Q9.90 43.40 9.85 43.40Q9.75 43.40 9.58 43.23Q9.40 43.05 9.20 43.10Q8.95 42.70 8.63 42.27Q8.30 41.85 8.20 41.95Q8.20 41.90 8.25 41.85Q8.10 41.70 8.05 41.40Q7.70 41 6.70 38.95Q6.50 39.15 6.20 39.50Q5.90 39.85 5.50 40.25Q5.45 40.35 5.40 40.48Q5.35 40.60 5.30 40.80L4.95 41Q4.95 41.10 4.93 41.23Q4.90 41.35 4.85 41.55Q4.80 41.55 4.58 41.75Q4.35 41.95 4.15 41.95Q4.10 41.95 4 41.85Q3.90 41.95 3.75 42.13Q3.60 42.30 3.40 42.55Q3.45 42.60 3.70 42.60L3.70 42.80Q3.70 42.85 3.40 43.15L3.50 43.25Q3.35 43.35 2.85 43.85Q2.80 43.85 2.68 43.85Q2.55 43.85 2.40 43.90Q1.75 44.15 2 44.15Q1.85 44.15 1.65 44.10L1.35 44.10Q1.25 44.10 1.25 44.20ZM23.60 47.30Q23.35 47.25 23.30 46.73Q23.25 46.20 23.20 46.10L23.20 45.65Q23.20 44.80 23.23 44.15Q23.25 43.50 23.35 43.15L23.50 42.60L23.90 41Q23.85 40.95 23.85 40.80L23.95 40.05Q24 40 24.25 39.20L24.20 39.15L24.20 39.10Q23.95 39.20 23.55 39.80Q23.45 39.85 23.33 39.95Q23.20 40.05 23.05 40.40L22.30 41.30Q22.25 41.35 22.10 41.45Q21.95 41.55 21.65 41.85Q21.55 41.85 21.40 41.90Q21 42.30 20.75 42.40Q20.65 42.60 20.45 42.85Q20.25 43.10 20 43.35L20 43.05Q20.05 43 19.90 43Q19.85 43 19.45 43.45L19.55 43.55L19.90 43.25Q19.65 43.75 19.50 43.85Q17.90 45 17.40 45Q17.35 45 17.30 44.95Q17.25 44.90 17.20 44.90Q17.15 44.90 17.13 44.98Q17.10 45.05 17.05 45.05Q17.05 45.05 17 45.05L17.05 45.05Q17.05 45.05 17.05 45Q17.05 44.95 16.55 44.60Q16.45 44.60 16.23 44.50Q16 44.40 15.55 44L15.20 42.85L15.20 42.70Q15.40 42.35 15.35 42Q15.35 41.95 15.30 41.90Q15.30 41.65 15.33 41.25Q15.35 40.85 15.40 40.35Q15.55 39.60 15.75 39.65Q15.60 39.40 15.80 39.05Q15.80 39 15.88 39Q15.95 39 16 38.95Q15.90 38.75 15.90 38.70Q15.90 38.50 16.10 38.30Q16.15 37.85 16.18 37.70Q16.20 37.55 16.20 37.65Q16.20 37.65 16.25 37.55Q16.30 37.45 16.35 37.40Q16.20 37.25 16.20 37.15Q16.20 37.10 16.28 37.02Q16.35 36.95 16.35 36.90Q16.60 36.90 16.80 36.70Q16.80 36.65 16.75 36.65Q16.70 36.45 16.95 36.23Q17.20 36 17.25 35.90Q17.25 35.85 17.05 35.85L17.05 35.65Q17 35.55 17 35.45L17.15 35.30Q17.25 35.35 17.30 35.30Q17.25 35.20 17.25 34.95Q17.25 34.45 17.10 34.45Q16.90 34.45 14.90 35.55Q14.90 35.40 15 35.23Q15.10 35.05 15.05 35Q15.45 34.80 15.53 34.70Q15.60 34.60 15.75 34.60Q15.80 34.60 15.90 34.50Q15.95 34.45 15.95 34.42Q15.95 34.40 16.05 34.40Q16.10 34.40 16.15 34.45L16.60 34.30Q16.75 34.15 16.70 34.15Q16.85 34.15 16.85 34.10L16.90 34.10Q17.10 34.10 17.25 33.85L17.35 33.85Q17.40 33.80 17.40 33.85Q17.40 33.90 17.45 33.85Q17.50 33.80 17.55 33.80Q17.90 33.80 18.25 33.50Q18.55 33.60 18.55 33.60Q18.60 33.60 18.70 33.50Q18.80 33.50 19 33.70Q19.20 33.70 19.20 33.55Q19.20 33.55 19.50 33.65Q19.55 33.85 19.80 34Q19.80 34.25 20.20 34.90Q20.15 34.95 20 35.10Q19.85 35.25 19.60 35.60Q19.60 35.75 19.55 35.85L18.90 36.55Q18.85 37 18.15 37.90Q18.15 38.25 17.88 38.77Q17.60 39.30 17.60 39.40Q17.15 39.60 17.15 40.35Q17.15 40.45 17.25 40.67Q17.35 40.90 17.35 40.95Q17.35 41 17.28 41.15Q17.20 41.30 17.20 41.40L17.20 41.65L17.15 41.65L17.20 41.70Q17.20 41.75 17.20 41.92Q17.20 42.10 17.25 42.35Q17.25 42.35 17.35 42.45Q17.50 42.85 17.60 42.85Q17.70 43 17.60 43.15Q17.80 43.25 17.70 43.45L17.85 43.60Q18.05 43.50 18.38 43.30Q18.70 43.10 19.10 42.80Q19.35 43.05 19.40 43.05Q19.45 43.05 19.50 42.90Q20.05 42.60 20.20 42.35Q20.65 42.10 21.15 41.50Q21.15 41.55 21.20 41.60L21.30 41.60L21.45 41.30Q21.65 41.20 22.20 40.65L22.55 40.30Q22.55 40.05 22.88 39.88Q23.20 39.70 24.10 38.60Q24.10 38.65 24.15 38.70Q24.45 38.25 24.55 37.90Q24.55 37.80 24.50 37.70Q24.50 37.50 24.65 37.13Q24.80 36.75 24.90 36.35L25.10 36.20Q25.70 35.95 25.55 35L25.70 35Q25.75 35 25.93 34.77Q26.10 34.55 26.30 34.55Q26.35 34.55 26.43 34.60Q26.50 34.65 26.55 34.65Q26.60 34.65 26.70 34.40Q26.95 34.45 27 34.70Q27 34.70 27.10 34.45Q27.25 34.35 27.40 34.10L27.50 33.70L27.85 33.15Q28.05 33.05 28.15 32.90Q28.25 32.80 28.35 32.80Q28.60 32.80 28.50 33.25L28.30 33.45Q28.05 33.70 27.80 34.35Q27.80 34.35 27.75 34.38Q27.70 34.40 27.60 34.45Q27.60 34.60 27.35 34.85L27.95 35.40Q27.80 35.55 27.75 35.85Q27.55 36 27.10 36.70Q27.05 36.80 27 36.95Q26.95 37.10 26.85 37.35L26.35 38L26.40 38.20L26.25 38.10Q26.15 38.30 26.05 38.52Q25.95 38.75 25.85 39Q25.75 39.20 25.45 39.50L25.45 39.60Q25.35 39.70 25.20 40.30Q25.15 40.35 25.05 40.58Q24.95 40.80 24.70 41.15Q24.75 41.20 24.75 41.40L24.50 41.70Q24.35 42.25 24.18 43.08Q24 43.90 23.80 45Q23.75 45.25 23.73 45.48Q23.70 45.70 23.60 45.90L23.65 46.10L23.65 46.75Q23.55 47.15 23.60 47.30ZM29.20 44.55Q29.15 44.55 29.08 44.48Q29 44.40 28.90 44.40Q28.95 44.40 28.70 44.50L28.10 43.75L28.10 42.50L28.20 42.40L28.20 42.30Q28.20 42.20 28.28 42.05Q28.35 41.90 28.40 41.70Q28.35 41.65 28.35 41.50Q28.35 41.25 28.70 41.05Q28.65 40.90 28.70 40.55L28.85 40.25Q28.95 40.10 28.80 39.95L29 38.85Q29.05 38.80 29.15 38.50L29.35 36.70Q29.30 36.65 29.30 36.50Q29.40 36.30 29.40 36.25Q29.40 35.90 29.35 35.80Q29.30 35.70 29.25 35.60Q29.30 35.40 29.30 35.10Q29.30 34.65 28.95 34.65Q28.95 34.65 28.88 34.67Q28.80 34.70 28.65 34.75L28.60 34.55L28.60 34.50Q28.60 34.25 29.05 34Q29.10 34 29.10 34.05L29.20 34.05Q29.40 34.05 29.60 33.85L30.35 34.45Q30.40 34.45 30.30 34.70L30.55 35.05L30.55 36.25Q30.60 36.35 30.63 36.40Q30.65 36.45 30.65 36.50Q30.65 36.55 30.60 36.60Q30.55 36.65 30.55 36.75L30.55 38.50Q30.50 38.50 30.45 38.55Q30.50 38.60 30.50 39.80Q30.50 39.90 30.40 40.10Q30.30 40.30 30.30 40.35Q30.30 40.40 30.40 40.60L30.50 40.60Q30.50 40.60 30.75 39.85L30.90 39.85Q30.90 39.75 30.90 39.63Q30.90 39.50 30.95 39.30L31.60 38.55Q31.65 38.45 31.75 38.27Q31.85 38.10 31.95 37.90Q32 37.80 32.30 37.50Q32.35 37.40 32.40 37.27Q32.45 37.15 32.55 36.95L32.90 36.65Q32.90 36.55 33.03 36.42Q33.15 36.30 33.20 36.15Q33.45 36.10 33.55 35.65Q33.85 35.50 34.35 35L34.35 34.80Q34.75 34.45 34.70 34.45L34.75 34.45Q34.75 34.50 34.80 34.50Q34.75 34.50 35.40 33.75Q35.65 33.65 36.25 32.95Q36.60 32.80 37.05 32.45L37.50 32.45L38.05 32.55Q38.30 32.65 38.60 32.92Q38.90 33.20 39.05 33.90L39.05 34.40Q39.05 34.50 39.03 34.73Q39 34.95 38.95 35.30Q38.90 36.05 37.65 37.20Q37.45 37.20 37.10 37.45L37.10 36.90Q37.20 36.80 37.30 36.63Q37.40 36.45 37.50 36.25Q37.50 36.15 37.10 36.05Q37.40 35.45 37.40 35.30Q37.40 35.15 37.25 34.95Q37.15 35 37.10 35.02Q37.05 35.05 37.05 35.05Q36.65 35.05 36.70 35Q36.65 34.95 36.65 34.75L36.55 34.75Q36.45 34.75 36.25 34.92Q36.05 35.10 36 35.10Q35.95 35.10 35.95 35.05L35.85 35.05Q35.80 35.05 35.70 35.15Q35.60 35.25 35.50 35.25Q35.40 35.25 35.30 35.10Q35.20 35.10 35.15 35.15Q35.25 35.35 35.15 35.60Q34.95 35.90 34.75 35.90Q34.70 35.90 34.63 35.85Q34.55 35.80 34.50 35.80Q34.50 36.05 34.55 36.15L34.15 36.65Q34.05 36.75 33.90 36.75Q33.85 36.75 33.75 36.65L33.50 37.35L33.45 37.35Q33.20 37.35 32.70 38L32.50 38.10Q31.85 39.25 31.38 40Q30.90 40.75 30.65 41.05L30.65 41.45Q30.30 41.70 30.25 42.50Q30.15 42.60 30.05 42.85Q30.15 43.05 30.05 43.45Q30 43.50 29.95 43.67Q29.90 43.85 29.80 44.15Q29.55 44.55 29.20 44.55ZM44.40 43.80Q44.40 43.80 44.05 43.60Q43.90 43.60 43.60 43.55Q43.30 43.50 42.70 43.20Q42.60 43.15 42.42 43.08Q42.25 43 42.05 42.85Q42 42.60 41.60 42.10L41.50 42.10L41.35 42.20Q41.30 41.95 41.05 41.75Q41.05 41.55 40.85 41.30Q40.95 40.90 40.85 40.40Q40.75 40.10 40.45 39.80L40.60 39.60Q40.70 39.40 40.80 39.13Q40.90 38.85 41 38.50Q41.05 38.30 41.10 38.05Q41.15 37.80 41.25 37.45Q41.20 37.40 40.77 37.05Q40.35 36.70 40.05 36.85Q40.10 36.75 40.10 36.67Q40.10 36.60 40.10 36.60Q40.10 36.55 40 36.48Q39.90 36.40 39.90 36.30Q39.90 36.30 40.05 36.13Q40.20 35.95 40.25 35.95Q40.35 35.95 40.58 36.05Q40.80 36.15 40.90 36.15Q40.95 36.15 41.05 36.10Q41.15 36.05 41.20 36.05L42.05 36.25Q42.15 36.25 42.35 36.15L43.60 34.90Q43.75 34.90 43.77 34.83Q43.80 34.75 44.30 34.30Q44.35 34.30 44.48 34.25Q44.60 34.20 44.85 33.95L45 33.70Q46.45 32.70 47.55 32.70L47.90 32.70Q47.80 32.80 48 32.80Q48.05 32.80 48.15 32.75Q48.25 32.70 48.30 32.70L48.60 32.90L48.90 32.90Q49.10 33.10 49.10 33.10Q49.15 33.10 49.15 33.05L49.20 33.05Q49.10 33.05 49.40 33.35Q49.40 33.35 49.15 34.15Q49 34.25 48.73 34.55Q48.45 34.85 48.35 34.85Q48.30 34.85 48.13 34.75Q47.95 34.65 47.85 34.65Q47.80 34.65 47.55 34.75Q47.30 34.85 47.20 34.95Q47.15 35 46.98 35.08Q46.80 35.15 45.80 35.50Q45.85 35.85 45.65 35.90Q45.30 35.95 45.20 36.15L45.20 36.20Q45.45 36.45 46.35 36.45Q46.40 36.45 46.48 36.40Q46.55 36.35 46.65 36.35Q46.70 36.35 46.75 36.40L46.85 36.40Q46.90 36.40 47 36.33Q47.10 36.25 47.15 36.25Q47.25 36.25 47.75 36.40Q48.25 36.55 48.30 36.55Q48.50 36.55 48.60 36.30L48.80 36.45L49.05 36.45Q49.10 36.45 49.25 36.30L49.25 36.20Q48.85 35.95 48.65 35.95L48.65 35.55L48.90 35.45Q48.95 35.45 49 35.50L49.10 35.50L49.55 35.35Q49.70 35.65 49.90 35.85Q49.95 35.85 49.95 35.75Q50.10 35.80 50.38 36.02Q50.65 36.25 50.75 36.25Q50.80 36.25 50.90 36.17Q51 36.10 51.10 36.05L51.35 36.05Q51.80 36.05 52.35 35.85L52.50 35.95Q52.65 35.80 52.85 35.80Q52.95 35.80 52.95 35.85L53 35.85L53.55 35.75Q53.65 35.65 53.90 35.60Q54.15 35.55 54.75 35.55Q54.80 35.55 54.80 35.50Q55 35.40 55.23 35.35Q55.45 35.30 55.75 35.25Q55.80 35.20 55.98 35.10Q56.15 35 56.60 34.90Q56.70 34.90 56.80 34.90Q56.90 34.90 57.10 34.85L57.25 34.70Q57.30 34.70 57.30 34.75L57.35 34.75Q57.15 34.75 58.05 34.35Q58.10 34.40 58.10 34.50Q58.10 34.60 58.15 34.75Q58 34.75 57.95 34.95Q57.45 35 57.25 35.35L56.50 35.65Q56.40 35.65 56.28 35.65Q56.15 35.65 55.95 35.70L55.50 35.95Q55.45 35.95 55.40 35.90Q55.35 35.85 55.30 35.85Q55.35 35.85 55.02 36Q54.70 36.15 54.45 36.15L54.40 36.15Q54.40 36.10 54.35 36.10L54.20 36.25Q54 36.30 53.67 36.30Q53.35 36.30 52.95 36.35Q52.95 36.40 52.90 36.45Q53 36.45 52.88 36.48Q52.75 36.50 52.50 36.55Q52.35 36.55 52.10 36.55Q51.85 36.55 51.50 36.60Q51.45 36.60 51.35 36.70L52 37.45L52 37.60Q52 37.60 52.05 37.65Q52.10 37.70 52.35 38.10Q52.50 38.40 52.35 38.45Q52.50 38.95 52.50 38.80Q52.50 38.85 52.45 39.05Q52.40 39.25 52.30 39.60Q52.20 39.75 52.10 39.98Q52 40.20 51.90 40.50Q51.75 40.70 51.45 41.02Q51.15 41.35 50.65 41.85Q50.65 41.90 50.42 42.02Q50.20 42.15 49.95 42.50Q49.65 42.65 49.23 42.83Q48.80 43 48.25 43.25Q48.05 43.30 47.73 43.38Q47.40 43.45 47 43.50Q46.85 43.55 46.60 43.65Q46.35 43.75 45.95 43.75Q45.10 43.75 44.95 43.70L44.40 43.80M44.85 43.30Q44.85 43.35 44.88 43.27Q44.90 43.20 44.95 43.20L45.35 43.30Q45.65 43.30 45.73 43.23Q45.80 43.15 45.95 43.15L46.15 43.15Q46.30 43.20 46.40 43.20Q46.45 43.20 46.55 43.13Q46.65 43.05 46.70 43.05Q46.80 43.05 46.80 43.10L46.95 43L47.60 43Q47.60 43 47.92 42.92Q48.25 42.85 48.55 42.65L48.95 42.40Q49.35 42.15 49.65 42.02Q49.95 41.90 50.10 41.80Q50.85 41.25 51.10 40.60Q51.10 40.45 51.17 40.23Q51.25 40 51.25 39.95Q51.25 39.75 51.05 39.55Q51.05 39.45 51.08 39.25Q51.10 39.05 51.15 38.80L51.05 38.70Q50.95 38.30 50.70 37.90Q50.65 37.90 50.60 37.85Q50.55 37.80 50.50 37.40L50.25 37.20L50.25 36.95L49.70 36.95Q49.65 36.95 49.60 36.90Q49.55 36.85 49.50 36.85L49.25 36.85Q48.70 37.10 48.70 37.15L48.75 37.15Q48.75 37.15 48.70 37.15L48.30 37Q48.30 37 48.05 37.10Q47.80 37.20 47.50 37.20Q47.45 37.20 47.40 37.13Q47.35 37.05 47.25 37.05Q47.20 37.05 47.05 37.17Q46.90 37.30 46.85 37.30Q46.75 37.30 46.73 37.25Q46.70 37.20 46.65 37.20Q46.60 37.20 46.50 37.25Q46.40 37.30 46.35 37.30Q46.35 37.30 46.35 37.30L46.35 37.30Q46.35 37.30 46 37.10Q46 37.50 45.70 37.50Q45.50 37.50 45.50 37.15Q45.30 37.20 45.17 37.27Q45.05 37.35 44.90 37.35L44.75 37.35L44.60 37.20Q44.55 37.35 44.35 37.35Q44.20 37.35 44.15 37.30L44.15 37.15Q44.10 37.20 44 37.25Q43.90 37.30 43.80 37.35L43.80 37.40Q43.80 37.65 43.50 37.85Q43.20 38.05 42.65 38.35Q42.65 38.40 42.67 38.48Q42.70 38.55 42.70 38.60Q42.70 39.10 42.25 39.25L41.80 40.60Q41.90 40.60 41.90 40.65L42.45 42.30Q42.50 42.30 42.55 42.25L42.70 42.25Q42.85 42.25 42.95 42.58Q43.05 42.90 43.25 42.90Q43.30 42.90 43.30 42.85L43.35 42.85Q43.30 42.85 43.75 43.05Q43.75 43.05 44.05 43.15L44.15 43.05Q44.85 43.20 44.85 43.30ZM57.20 44.55Q57.15 44.55 57.08 44.48Q57 44.40 56.90 44.40Q56.95 44.40 56.70 44.50L56.10 43.75L56.10 42.50L56.20 42.40L56.20 42.30Q56.20 42.20 56.27 42.05Q56.35 41.90 56.40 41.70Q56.35 41.65 56.35 41.50Q56.35 41.25 56.70 41.05Q56.65 40.90 56.70 40.55L56.85 40.25Q56.95 40.10 56.80 39.95L57 38.85Q57.05 38.80 57.15 38.50L57.35 36.70Q57.30 36.65 57.30 36.50Q57.40 36.30 57.40 36.25Q57.40 35.90 57.35 35.80Q57.30 35.70 57.25 35.60Q57.30 35.40 57.30 35.10Q57.30 34.65 56.95 34.65Q56.95 34.65 56.88 34.67Q56.80 34.70 56.65 34.75L56.60 34.55L56.60 34.50Q56.60 34.25 57.05 34Q57.10 34 57.10 34.05L57.20 34.05Q57.40 34.05 57.60 33.85L58.35 34.45Q58.40 34.45 58.30 34.70L58.55 35.05L58.55 36.25Q58.60 36.35 58.63 36.40Q58.65 36.45 58.65 36.50Q58.65 36.55 58.60 36.60Q58.55 36.65 58.55 36.75L58.55 38.50Q58.50 38.50 58.45 38.55Q58.50 38.60 58.50 39.80Q58.50 39.90 58.40 40.10Q58.30 40.30 58.30 40.35Q58.30 40.40 58.40 40.60L58.50 40.60Q58.50 40.60 58.75 39.85L58.90 39.85Q58.90 39.75 58.90 39.63Q58.90 39.50 58.95 39.30L59.60 38.55Q59.65 38.45 59.75 38.27Q59.85 38.10 59.95 37.90Q60 37.80 60.30 37.50Q60.35 37.40 60.40 37.27Q60.45 37.15 60.55 36.95L60.90 36.65Q60.90 36.55 61.03 36.42Q61.15 36.30 61.20 36.15Q61.45 36.10 61.55 35.65Q61.85 35.50 62.35 35L62.35 34.80Q62.75 34.45 62.70 34.45L62.75 34.45Q62.75 34.50 62.80 34.50Q62.75 34.50 63.40 33.75Q63.65 33.65 64.25 32.95Q64.60 32.80 65.05 32.45L65.50 32.45L66.05 32.55Q66.30 32.65 66.60 32.92Q66.90 33.20 67.05 33.90L67.05 34.40Q67.05 34.50 67.03 34.73Q67 34.95 66.95 35.30Q66.90 36.05 65.65 37.20Q65.45 37.20 65.10 37.45L65.10 36.90Q65.20 36.80 65.30 36.63Q65.40 36.45 65.50 36.25Q65.50 36.15 65.10 36.05Q65.40 35.45 65.40 35.30Q65.40 35.15 65.25 34.95Q65.15 35 65.10 35.02Q65.05 35.05 65.05 35.05Q64.65 35.05 64.70 35Q64.65 34.95 64.65 34.75L64.55 34.75Q64.45 34.75 64.25 34.92Q64.05 35.10 64 35.10Q63.95 35.10 63.95 35.05L63.85 35.05Q63.80 35.05 63.70 35.15Q63.60 35.25 63.50 35.25Q63.40 35.25 63.30 35.10Q63.20 35.10 63.15 35.15Q63.25 35.35 63.15 35.60Q62.95 35.90 62.75 35.90Q62.70 35.90 62.63 35.85Q62.55 35.80 62.50 35.80Q62.50 36.05 62.55 36.15L62.15 36.65Q62.05 36.75 61.90 36.75Q61.85 36.75 61.75 36.65L61.50 37.35L61.45 37.35Q61.20 37.35 60.70 38L60.50 38.10Q59.85 39.25 59.38 40Q58.90 40.75 58.65 41.05L58.65 41.45Q58.30 41.70 58.25 42.50Q58.15 42.60 58.05 42.85Q58.15 43.05 58.05 43.45Q58 43.50 57.95 43.67Q57.90 43.85 57.80 44.15Q57.55 44.55 57.20 44.55ZM67.40 44.20Q67.35 44.15 67.28 44.05Q67.20 43.95 67.15 43.95L67.10 43.95Q67.10 44 67.05 44Q66.95 44 66.85 43.55Q66.80 43.50 66.50 43.40Q66.35 42.85 66.15 42.80L66.15 41.45L66.55 41Q66.60 40.95 66.50 40.65Q66.55 40.55 66.60 40.45Q66.65 40.35 66.75 40.25Q66.75 40.10 66.70 39.90Q66.80 39.60 67 39.45Q67 39.15 67.20 38.90Q67.30 38.90 67.75 38.30L68.25 37.55Q68.40 37.45 68.85 37L68.85 36.80Q69 36.70 69.15 36.50Q69.50 36.45 69.65 36.20Q69.65 36.15 69.65 36.05Q69.65 35.95 69.70 35.85Q69.80 35.80 69.90 35.80Q70 35.80 70.15 35.75Q70.25 35.45 70.40 35.35Q71.05 35.30 71.35 34.65Q71.40 34.65 71.58 34.52Q71.75 34.40 71.80 34.40Q71.80 34.40 71.80 34.40L71.80 34.40Q71.75 34.45 71.95 34.50Q72.05 34.40 72.05 34.35Q72.30 34.20 72.50 34.20Q72.75 33.90 72.75 33.90Q72.80 33.90 72.83 33.95Q72.85 34 72.90 34Q73 34 73.28 33.88Q73.55 33.75 73.65 33.75L73.70 33.75Q73.65 33.80 73.75 33.80Q73.80 33.80 73.88 33.73Q73.95 33.65 74 33.65Q74.10 33.65 74.20 33.73Q74.30 33.80 74.35 33.80Q74.40 33.80 74.43 33.75Q74.45 33.70 74.55 33.70Q74.55 33.70 74.55 33.70L74.55 33.70Q74.45 33.70 74.70 33.80Q74.75 33.60 74.95 33.60Q75.05 33.60 75.08 33.67Q75.10 33.75 75.20 33.75Q75.25 33.75 75.25 33.70L75.35 33.70Q75.45 33.70 75.75 34.10Q75.85 34 75.85 34Q76.20 34.25 76.25 34.40L76.25 34.90L76.15 34.80Q75.85 34.90 75.55 34.90Q75.50 34.90 75.48 34.85Q75.45 34.80 75.35 34.80Q75.30 34.80 75.23 34.85Q75.15 34.90 75.10 34.90Q75 34.90 74.93 34.85Q74.85 34.80 74.80 34.80Q74.75 34.80 74.75 34.85Q74.75 34.90 74.65 34.90L74.60 34.90Q74.65 34.85 74.55 34.85Q74.50 34.85 73.98 35.10Q73.45 35.35 73.40 35.35Q73.35 35.35 73.25 35.20L72.25 35.65L71.90 35.55Q71.85 35.55 71.65 35.75Q71.45 35.95 71.35 35.95Q71.30 35.95 71.30 35.90L71.25 35.90Q71.05 35.90 70.88 36.13Q70.70 36.35 70.35 36.45Q70.30 36.50 70.35 36.65Q70.10 37.20 69.70 37.35Q69.65 37.40 69.65 37.55L69.30 37.55Q69.25 37.60 69.25 37.90Q69.25 37.90 69.18 37.90Q69.10 37.90 69 37.85Q68.85 38.10 68.95 38.35L68.45 38.35Q68.35 38.55 68.20 38.83Q68.05 39.10 67.90 39.50Q67.85 39.65 67.73 39.88Q67.60 40.10 67.50 40.40Q67.20 40.75 67 41.25L67 41.70Q67 41.75 66.95 41.90Q66.90 42.05 66.90 42.15Q67.15 42.40 67.40 42.40Q67.55 42.40 67.78 42.33Q68 42.25 68.20 41.85L68.35 41.95Q68.75 41.80 69.25 41.40Q69.30 41.35 69.50 41.30Q69.70 41.25 69.70 41.05Q69.75 41.05 69.80 41.10L70 40.75Q70.55 40.65 70.60 40.15Q70.70 40.15 70.75 40.20L71.10 39.90Q71.10 39.80 71.15 39.70Q71.20 39.70 71.25 39.67Q71.30 39.65 71.40 39.60L71.70 39.05Q71.85 38.90 72.20 38.85Q72.35 38.75 72.48 38.60Q72.60 38.45 72.70 38.35Q72.65 38.25 72.60 38.15Q72.55 38.05 72.45 37.95Q72.35 37.80 72.55 37.70Q72.45 37.75 72.45 37.60L72.45 37.30Q72.60 37.20 72.83 37.10Q73.05 37 73.30 36.80Q73.50 36.70 73.55 36.70Q73.55 36.70 73.55 36.70L73.55 36.70Q73.40 36.70 73.65 36.80Q73.75 36.55 73.90 36.25Q74.05 35.95 74.20 35.55L74.60 35.35Q74.60 35.35 74.70 35.65Q74.30 36.20 74.30 36.50Q74.30 36.65 74.80 36.80Q74.80 36.80 74.80 36.83Q74.80 36.85 74.75 36.90Q74.95 37.05 75.08 37.20Q75.20 37.35 75.25 37.45Q74.90 37.95 74.90 38.40L75 38.50Q74.95 38.55 74.95 38.90Q75 39.20 75.08 39.52Q75.15 39.85 75.25 40.25L75.60 40.75L75.60 40.90Q75.60 41.60 76.10 42.10L76.25 42L76.25 42.15Q76.55 42.25 76.90 42.60L77.45 42.60Q77.60 42.80 77.75 42.80Q78.55 42.80 78.55 42.40Q78.55 42.40 78.65 42.50Q79.20 42.25 80.30 40.85Q81.05 39.95 81.15 40L81.35 40.05L81.35 40.25L81.40 40.30Q81.40 40.30 81 40.85Q81 41.05 80.60 41.35Q80.70 41.40 80.60 41.50L80.30 41.70L80.40 41.85Q79.90 42 79.60 42.25Q79.30 42.50 79.35 42.60Q79.25 42.60 79 42.90Q78.80 42.90 78.80 43.10Q78.70 43 78.70 43L78.55 43.10Q78.55 43.10 78.48 43.15Q78.40 43.20 78.30 43.30Q78.25 43.30 78.15 43.30Q78.05 43.30 77.95 43.35L77.85 43.50L77.60 43.50Q77.55 43.45 77.50 43.45Q77.05 43.45 76.80 43.70L76.80 43.50L76.15 43.50L76.15 43.30Q76.05 43.40 76 43.40Q75.90 43.40 75.73 43.23Q75.55 43.05 75.35 43.10Q75.10 42.70 74.78 42.27Q74.45 41.85 74.35 41.95Q74.35 41.90 74.40 41.85Q74.25 41.70 74.20 41.40Q73.85 41 72.85 38.95Q72.65 39.15 72.35 39.50Q72.05 39.85 71.65 40.25Q71.60 40.35 71.55 40.48Q71.50 40.60 71.45 40.80L71.10 41Q71.10 41.10 71.08 41.23Q71.05 41.35 71 41.55Q70.95 41.55 70.73 41.75Q70.50 41.95 70.30 41.95Q70.25 41.95 70.15 41.85Q70.05 41.95 69.90 42.13Q69.75 42.30 69.55 42.55Q69.60 42.60 69.85 42.60L69.85 42.80Q69.85 42.85 69.55 43.15L69.65 43.25Q69.50 43.35 69 43.85Q68.95 43.85 68.83 43.85Q68.70 43.85 68.55 43.90Q67.90 44.15 68.15 44.15Q68 44.15 67.80 44.10L67.50 44.10Q67.40 44.10 67.40 44.20Z"/></g></g></svg>